<svg width="500" height="500" viewBox="0 0 500 500" fill="none" xmlns="http://www.w3.org/2000/svg">
<path d="M250 500C111.922 500 0 388.078 0 250C0 111.922 111.922 0 250 0C388.078 0 500 111.922 500 250C500 388.078 388.078 500 250 500ZM250 275H282.143V297.164H225V205.75H266.096C305.861 205.75 310.714 168.672 310.714 168.672H223.688C174.125 168.672 182.143 203.571 182.143 203.571C182.143 203.571 182.143 296.429 182.143 310.714C182.143 325 207.143 332.143 217.857 332.143C228.571 332.143 289.286 332.143 289.286 332.143C289.286 332.143 303.571 317.857 310.714 310.714V246.429H250C250 246.429 242.857 264.286 250 275ZM381.172 368.656C416.297 332.156 429.766 281.469 417.125 232.984C410.454 207.615 397.068 184.513 378.375 166.109C376.687 164.453 375 162.766 373.031 161.109L371.344 159.438C370.198 158.333 368.976 157.309 367.688 156.375L365.438 154.703L362.078 152.203L360.094 150.797C358.753 149.919 357.444 148.991 356.172 148.016L353.625 146.359C352.566 145.609 351.442 144.955 350.266 144.406L347.734 142.734C346.609 142.172 345.484 141.328 344.359 140.781L341.828 139.375C340.638 138.761 339.418 138.208 338.172 137.719L337.312 137.437C340.406 139.937 343.484 142.734 346.297 145.516C359.116 158.226 369.291 173.349 376.235 190.012C383.179 206.676 386.754 224.549 386.754 242.602C386.754 260.654 383.179 278.527 376.235 295.191C369.291 311.854 359.116 326.977 346.297 339.687C277.766 407.656 166.531 407.656 97.9688 339.687C95.4375 337.187 93.1875 334.688 90.6719 332.188L88.7031 329.953C87.2309 328.241 85.8237 326.474 84.4844 324.656C93.2974 341.939 104.771 357.731 118.484 371.453C190.109 442.484 306.391 442.484 378.016 371.453C379.264 370.762 380.342 369.801 381.172 368.641V368.656ZM162.5 349.781C159.374 347.232 156.371 344.537 153.5 341.703C140.668 328.981 130.482 313.843 123.531 297.164C116.58 280.484 113.001 262.593 113.001 244.523C113.001 226.453 116.58 208.562 123.531 191.883C130.482 175.204 140.668 160.066 153.5 147.344C222.109 79.3125 333.438 79.3125 402.047 147.344C406.828 152.094 411.312 157.109 415.531 162.406C406.709 145.195 395.229 129.482 381.516 115.844C309.828 44.7344 193.422 44.7344 121.734 115.844C120.891 116.672 120.047 117.797 118.922 118.625C71.4062 168.266 64.9375 242.438 102.906 298.766C117.812 320.484 138.594 338.609 162.5 349.781Z" fill="#2F95DC"/>
</svg>
